# xmcd CD database file generated by OrangeCD 5.2
#
# Track frame offsets:
#	150
#	13941
#	27149
#	43700
#	58367
#	72228
#	90570
#	106971
#	121619
#	137005
#	149585
#	166755
#	182324
#	199833
#	216274
#	232612
#	246805
#	269742
#
# Disc length: 3908 seconds
#
# Revision: 1
# Processed by: cddbd v1.5PL3 Copyright (c) Steve Scherf et al.
# Submitted via: OrangeCD 5.2
#
DISCID=fd0f4212
DTITLE=The Dean Brothers - Kiss me honey, honey
DYEAR=2001
DGENRE=country rock
TTITLE0=Kiss Me Honey Honey
TTITLE1=Loves Made A Fool Of You
TTITLE2=Love Me Tender
TTITLE3=Some Girls Will
TTITLE4=Devil In Disguise
TTITLE5=Mony Mony
TTITLE6=What Do You Wanna Make Those Eyes At Me For
TTITLE7=Green Door
TTITLE8=Didya Ever
TTITLE9=Don't Sit Under The Apple Tree
TTITLE10=Buono Sera
TTITLE11=I'll Never Find Another You
TTITLE12=You've Got What It Takes
TTITLE13=Singing In The Rain
TTITLE14=Land Of Enchantment
TTITLE15=He Drinks Tequila
TTITLE16=Kiss Me Honey Honey (extended mix)
TTITLE17=Loves Made A Fool Of You (world record attempt)!!
EXTD=
EXTT0=
EXTT1=
EXTT2=
EXTT3=
EXTT4=
EXTT5=
EXTT6=
EXTT7=
EXTT8=
EXTT9=
EXTT10=
EXTT11=
EXTT12=
EXTT13=
EXTT14=
EXTT15=
EXTT16=
EXTT17=
PLAYORDER=
